<svg id="eb9n4o54i71c1" xmlns="http://www.w3.org/2000/svg" xmlns:xlink="http://www.w3.org/1999/xlink" viewBox="0 0 200 285.750000" shape-rendering="geometricPrecision" text-rendering="geometricPrecision"><g id="eb9n4o54i71c2" transform="matrix(1 0 0 1 0 -11.25000000000000)" opacity="0.5"><path id="eb9n4o54i71c3" d="M-1.567000,307.732000C-1.754000,298.892000,-2.060000,272.597000,-2.249000,249.299000L-2.592000,206.939000L4.192000,203.719000C37.506000,187.909000,71.431000,180.019000,106.312000,179.969000C119.851000,179.949000,120.889000,180.031000,130.267000,181.865000C142.956000,184.347000,157.319000,188.338000,179.017000,195.411000C206.996000,204.531000,216.617000,207.047000,230.074000,208.760000C238.791000,209.870000,245.152000,209.866000,265.320000,208.740000C306.301000,206.454000,323.230000,202.970000,367.973000,187.610000L382.935000,182.474000L391.005000,183.177000C426.468000,186.267000,452.749000,194.685000,475.725000,210.314000C480.117000,213.301000,485.452000,217.307000,495.505000,225.166000C505.822000,233.230000,512.700000,237.979000,518.819000,241.260000L524.230000,244.162000L524.230000,323.804000L-1.229000,323.804000Z" fill="rgb(160,199,130)" stroke="none" stroke-width="1"/><path id="eb9n4o54i71c4" d="M1897.327000,800.012000C1871.628000,786.178000,1856.833000,776.449000,1803.732000,738.472000C1751.517000,701.127000,1723.259000,683.495000,1690.063000,667.547000C1621.194000,634.459000,1536.757000,614.127000,1433.827000,605.844000L1404.448000,603.480000L1349.788000,620.820000C1185.868000,672.825000,1125.685000,684.253000,975.004000,691.990000C848.048000,698.510000,820.288000,694.435000,657.104000,645.323000C503.025000,598.952000,443.101000,589.339000,349.008000,595.897000C240.048000,603.491000,138.261000,627.488000,40.911000,668.534000C22.021000,676.498000,5.293000,683.550000,3.738000,684.204000C1.318000,685.222000,1.064000,636.064000,1.976000,343.539000C2.563000,155.519000,3.450000,1.279000,3.944000,0.784000C4.440000,0.288000,436.914000,0.480000,965,1.210000L1925.154000,2.538000L1924.019000,18.869000C1923.395000,27.851000,1922.305000,209.528000,1921.596000,422.594000C1920.648000,707.801000,1919.707000,809.980000,1918.032000,809.960000C1916.780000,809.943000,1907.463000,805.468000,1897.328000,800.012000Z" transform="matrix(0.26458001136780 0 0 0.26458001136780 0 11.25000000000000)" fill="rgb(129,212,250)" stroke="none" stroke-width="1"/><path id="eb9n4o54i71c5" d="M510.065000,248.494000C503.130000,244.110000,499.137000,241.027000,484.807000,228.992000C470.717000,217.159000,463.090000,211.572000,454.132000,206.518000C435.547000,196.033000,412.760000,189.590000,384.983000,186.965000L377.055000,186.216000L362.305000,191.711000C318.068000,208.191000,301.827000,211.811000,261.164000,214.264000C226.904000,216.329000,219.412000,215.038000,175.374000,199.476000C133.794000,184.781000,117.623000,181.735000,92.231000,183.813000C62.827000,186.220000,35.358000,193.824000,9.087000,206.830000L-0.945000,211.796000C-1.598000,212.119000,-1.666000,196.541000,-1.420000,103.846000C-1.262000,44.266000,-1.023000,-4.611000,-0.889000,-4.768000C-0.755000,-4.925000,115.954000,-4.864000,258.464000,-4.632000L517.574000,-4.212000L517.268000,0.963000C517.100000,3.810000,516.805000,61.380000,516.614000,128.897000C516.358000,219.274000,516.104000,251.652000,515.652000,251.646000C515.314000,251.641000,512.800000,250.222000,510.065000,248.494000Z" transform="matrix(1 0 0 1 -1.04062412595356 0.23942206463553)" fill="rgb(129,212,250)" stroke="none" stroke-width="1"/><ellipse id="eb9n4o54i71c6" rx="25.922000" ry="25.655000" transform="matrix(1 0 0 1 17.70350551078132 36.90500000051757)" fill="rgb(255,212,132)" stroke="rgb(255,172,181)" stroke-width="1"/><g id="eb9n4o54i71c7" transform="matrix(1 0 0 1 -731.32742655375057 19.94675583646907)" opacity="0.8"><path id="eb9n4o54i71c8" d="M297.104000,99.632000L362.852000,100.434000C369.382000,99.238000,375.774000,97.814000,375.682000,85.467000C375.102000,83.061000,378.882000,82.399000,371.940000,77.449000C369.819000,73.083000,377.073000,68.718000,364.456000,64.352000C359.723000,65.032000,354.498000,64.233000,351.093000,68.896000C349.468000,66.148000,349.287000,62.047000,342.273000,64.352000C338.806000,62.549000,335.823000,59.432000,329.978000,64.085000C323.832000,62.491000,320.743000,66.177000,318.486000,71.301000C315.934000,71.105000,317.286000,68.652000,310.735000,70.767000C306.425000,66.155000,300.701000,65.581000,293.897000,68.094000C288.981000,68.102000,285.557000,69.710000,285.612000,75.044000C280.857000,77.408000,282.661000,80.544000,283.741000,83.596000C282.007000,88.850000,284.694000,92.140000,289.353000,94.554000C290.637000,100.146000,294.153000,99.042000,297.104000,99.632000Z" transform="matrix(1 0 0 1 435.64199829101563 -10.60799980163574)" fill="rgb(43,44,51)" stroke="none" stroke-width="1"/><path id="eb9n4o54i71c9" d="M294.164000,99.365000L359.912000,100.166000C366.442000,98.971000,372.834000,97.547000,372.742000,85.199000C372.162000,82.794000,375.942000,82.132000,369,77.181000C366.879000,72.816000,374.133000,68.451000,361.516000,64.085000C356.783000,64.765000,351.558000,63.965000,348.153000,68.629000C346.529000,65.880000,346.347000,61.780000,339.333000,64.085000C335.866000,62.282000,332.883000,59.165000,327.038000,63.818000C320.892000,62.224000,317.803000,65.910000,315.546000,71.034000C312.994000,70.838000,314.346000,68.384000,307.795000,70.500000C303.485000,65.888000,297.761000,65.314000,290.957000,67.827000C286.041000,67.835000,282.617000,69.442000,282.672000,74.776000C277.917000,77.141000,279.721000,80.277000,280.801000,83.328000C279.068000,88.583000,281.754000,91.873000,286.413000,94.286000C287.697000,99.879000,291.213000,98.775000,294.164000,99.365000Z" transform="matrix(1 0 0 1 435.64199829101563 -10.60999965667725)" fill="rgb(219,255,250)" stroke="none" stroke-width="1"/></g><g id="eb9n4o54i71c10" transform="matrix(0.68098998069763 0 0 0.59079998731613 31.89077132948241 104.16845705640641)" opacity="0.455"><path id="eb9n4o54i71c11" d="M81.513000,80.985000L125.613000,82.588000C131.654000,81.066000,134.230000,77.810000,135.768000,74.036000C136.358000,68.422000,133.223000,63.993000,128.285000,60.138000C125.947000,59.226000,125.457000,60.161000,124.543000,60.672000C127.189000,56.487000,125.207000,52.590000,124.008000,48.645000C122.872000,45.685000,120.550000,43.537000,114.654000,43.835000C111.426000,43.105000,108.296000,42.867000,105.567000,44.636000C107.510000,33.928000,91.398000,31.611000,85.522000,35.549000C80.347000,35.339000,75.987000,36.051000,74.564000,40.092000C69.777000,41.787000,71.812000,45.276000,71.356000,48.110000C70.149000,47.200000,69.217000,45.796000,66.813000,47.041000C59.647000,44.928000,57.374000,48.686000,53.717000,50.783000C49.471000,52.243000,47.779000,55.065000,47.302000,58.534000C41.619000,64.112000,44.362000,69.266000,45.966000,71.897000C45.950000,76.994000,48.943000,78.481000,51.311000,80.717000Z" fill="rgb(43,44,51)" stroke="none" stroke-width="1"/><path id="eb9n4o54i71c12" d="M79.642000,80.183000L123.742000,81.786000C129.784000,80.264000,132.359000,77.008000,133.897000,73.234000C134.487000,67.620000,131.352000,63.191000,126.414000,59.336000C124.076000,58.424000,123.586000,59.359000,122.672000,59.870000C125.318000,55.685000,123.336000,51.788000,122.138000,47.843000C121.001000,44.883000,118.678000,42.736000,112.783000,43.033000C109.555000,42.304000,106.425000,42.065000,103.696000,43.834000C105.639000,33.126000,89.527000,30.809000,83.651000,34.747000C78.476000,34.537000,74.116000,35.250000,72.693000,39.291000C67.906000,40.985000,69.941000,44.474000,69.485000,47.309000C68.278000,46.399000,67.346000,44.994000,64.942000,46.239000C57.776000,44.126000,55.503000,47.885000,51.846000,49.981000C47.600000,51.441000,45.908000,54.263000,45.431000,57.732000C39.748000,63.310000,42.491000,68.464000,44.095000,71.096000C44.079000,76.192000,47.072000,77.680000,49.440000,79.916000Z" fill="rgb(219,255,250)" stroke="none" stroke-width="1"/></g><path id="eb9n4o54i71c13" d="M-29.307000,349.422000C-29.504000,340.582000,-29.827000,314.287000,-30.027000,290.989000L-30.387000,248.629000L-23.232000,245.409000C11.907000,229.599000,47.690000,221.709000,84.482000,221.659000C98.763000,221.639000,99.859000,221.721000,109.750000,223.555000C123.134000,226.037000,138.284000,230.028000,161.172000,237.101000C190.683000,246.221000,200.832000,248.737000,215.026000,250.450000C224.221000,251.560000,230.930000,251.556000,252.204000,250.430000C295.430000,248.144000,313.287000,244.660000,360.481000,229.300000L376.262000,224.164000L384.775000,224.867000C422.181000,227.957000,449.901000,236.375000,474.137000,252.004000C478.769000,254.991000,484.396000,258.997000,495,266.856000C505.882000,274.920000,513.138000,279.669000,519.592000,282.950000L525.299000,285.852000L525.299000,365.494000L-28.950000,365.494000Z" transform="matrix(1 0 0 1 0.74599999189377 0)" fill="rgb(103,199,130)" stroke="none" stroke-width="1"/></g></svg>