<svg xmlns="http://www.w3.org/2000/svg" viewBox="0 0 62 36"><g fill="none" stroke-linecap="round"><path d="M.961 20.281c11.999 9.484 24.64 15.815 38.833 14.538 14.217.153 21.206-6.605 20.711-17.445C60.52 7.789 51.531.721 41.09 1.383 31.37.788 24.073 7.736 24.26 8.652" stroke="#268dc4" stroke-width="1.726"/><path d="M7.52 20.358c6.309 4.168 7.83 3.42 16.741 7.192 3.006 1.675 35.583 4.906 27.183-13.083-.884-4.405-16.687-6.362-21.66.459" stroke="#268ec4" stroke-width="1.226"/><path d="M1.516 20.092c11.998 9.484 24.64 15.815 38.833 14.538 14.217.153 21.206-6.605 20.71-17.445C61.076 7.6 52.086.532 41.644 1.194 31.926.599 24.627 7.547 24.816 8.463" stroke="#c8e1ff" stroke-width="1.726"/><path d="M8.263 19.65c6.31 4.167 7.83 3.419 16.742 7.191 3.005 1.676 35.583 4.906 27.183-13.083-.884-4.404-16.687-6.362-21.66.459" stroke="#c7e1ff" stroke-width="1.226"/></g></svg>